<svg xmlns="http://www.w3.org/2000/svg" viewBox="0 0 1000 1000"><defs><style>.cls-1{fill:#fff;}</style></defs><g id="Layer_1" data-name="Layer 1"><path class="cls-1" d="M163.27,555.3V445.42h41.3V555.3Z"/><path class="cls-1" d="M216.51,555.3V445.42h34.64l30.71,43v-43h41.29V555.3H288.34l-30.54-43v43Z"/><path class="cls-1" d="M357.1,555.3V475.11h-28V445.42h97.25v29.69h-28V555.3Z"/><path class="cls-1" d="M414.43,555.3l42.31-109.88h42.83L541.89,555.3h-43L491,534.83H465.28l-7.85,20.47Zm55.28-48.63h16.72l-8.36-21Z"/><path class="cls-1" d="M550.42,555.3V445.42h34.63l30.71,43v-43h41.3V555.3H622.25l-30.54-43v43Z"/><path class="cls-1" d="M669,555.3V445.42h41.29V555.3Z"/><path class="cls-1" d="M718.82,555.3l42.31-109.88H804L846.28,555.3h-43l-7.85-20.47H769.67l-7.85,20.47Zm55.28-48.63h16.72l-8.36-21Z"/><path class="cls-1" d="M203.93,657q-12.27,0-20.94-3.62a26.69,26.69,0,0,1-13.28-11.73q-4.62-8.13-4.62-21.59t4.62-21.64A26.78,26.78,0,0,1,183,586.77q8.67-3.62,20.94-3.61t20.94,3.61a26.78,26.78,0,0,1,13.28,11.68q4.62,8.07,4.62,21.64t-4.62,21.59a26.69,26.69,0,0,1-13.28,11.73Q216.2,657,203.93,657Zm0-22.81c4,0,6.81-1.05,8.5-3.17s2.53-5.76,2.53-11-.84-8.84-2.53-11-4.52-3.17-8.5-3.17-6.81,1.06-8.5,3.17-2.53,5.77-2.53,11,.84,8.85,2.53,11S200,634.22,203.93,634.22Z"/><path class="cls-1" d="M248.4,655.92V584.27h40.75q9.33,0,15.42,3.78a23.51,23.51,0,0,1,9.06,10.13,32.46,32.46,0,0,1,3,14,28.86,28.86,0,0,1-3.43,14.08,25.57,25.57,0,0,1-9.68,10,28.69,28.69,0,0,1-14.8,3.68H275.64v16Zm27.24-37h6.64a6.49,6.49,0,0,0,5-1.78,6.82,6.82,0,0,0,1.69-4.9q0-6.88-6.19-6.89h-7.09Z"/><path class="cls-1" d="M320,655.92V584.27h58v19.36H347.23v6.45h26.45v20H347.23v6.45H378v19.36Z"/><path class="cls-1" d="M382.46,655.92V584.27h22.86l20.26,28v-28h27.24v71.65h-23l-20.15-28v28Z"/><path class="cls-1" d="M482.65,655.92V584.27h27.24v23.36H528V584.27h27.24v71.65H528V632.55H509.89v23.37Z"/><path class="cls-1" d="M599.72,657q-12.27,0-20.93-3.62a26.71,26.71,0,0,1-13.29-11.73q-4.62-8.13-4.61-21.59t4.61-21.64a26.8,26.8,0,0,1,13.29-11.68q8.65-3.62,20.93-3.61t20.94,3.61A26.8,26.8,0,0,1,634,598.45q4.6,8.07,4.61,21.64T634,641.68a26.71,26.71,0,0,1-13.29,11.73Q612,657,599.72,657Zm0-22.81c4,0,6.81-1.05,8.5-3.17s2.54-5.76,2.54-11-.85-8.84-2.54-11-4.52-3.17-8.5-3.17-6.81,1.06-8.49,3.17-2.54,5.77-2.54,11,.85,8.85,2.54,11S595.75,634.22,599.72,634.22Z"/><path class="cls-1" d="M679.87,657a48.57,48.57,0,0,1-18.46-3.34,29.22,29.22,0,0,1-13-9.9q-4.78-6.57-4.78-16.13V584.27h27.24v39.94q0,10,9,10t9-10V584.27h27.24v43.39q0,9.57-4.78,16.13a29.28,29.28,0,0,1-13,9.9A48.62,48.62,0,0,1,679.87,657Z"/><path class="cls-1" d="M748.54,657a83.09,83.09,0,0,1-14.74-1.28A43.76,43.76,0,0,1,721.86,652V631.89a62.5,62.5,0,0,0,11.94,4.22,48.68,48.68,0,0,0,11.82,1.67,13.71,13.71,0,0,0,5.29-.83,2.64,2.64,0,0,0,1.91-2.39q0-2-3.6-3.12t-9.46-3.23a49.94,49.94,0,0,1-11-5.56,16.54,16.54,0,0,1-5.8-6.95,26,26,0,0,1-1.74-10.18q0-22.37,31.85-22.36a70.9,70.9,0,0,1,8.05.5q4.45.5,8.67,1.28a64.75,64.75,0,0,1,7.15,1.67v20.24A57.75,57.75,0,0,0,766,603.4a46,46,0,0,0-8.33-.89,33.35,33.35,0,0,0-5.74.51c-1.95.33-2.93,1.09-2.93,2.28,0,1,.86,1.72,2.59,2.28s4.47,1.35,8.22,2.39q9,2.44,13.51,5.84a16.43,16.43,0,0,1,6,8,34.08,34.08,0,0,1,1.52,10.63,19.57,19.57,0,0,1-8.11,16.4Q764.64,657,748.54,657Z"/><path class="cls-1" d="M786.48,655.92V584.27h58v19.36H813.72v6.45h26.45v20H813.72v6.45h30.73v19.36Z"/><path class="cls-1" d="M167.86,880.9V848.66a174.27,174.27,0,0,1,19.3-26.06,295,295,0,0,1,24.34-24q16.63-14.46,24.05-22.3T243,760.07q0-14.16-20.49-14.16a108.13,108.13,0,0,0-25.68,3,141.79,141.79,0,0,0-23.31,7.84V696.19a142.74,142.74,0,0,1,30.88-9,203.3,203.3,0,0,1,37.11-3.31q38,0,56.41,17.48t18.41,45.8a76,76,0,0,1-2.67,21.39,52.55,52.55,0,0,1-8.76,17,129.4,129.4,0,0,1-16.48,17.33q-5.94,5.43-13.06,11.6a60.37,60.37,0,0,0-10.39,11h52.84V880.9Z"/><path class="cls-1" d="M423.19,883.91q-51.36,0-73.92-25.91T326.7,783.88q0-48.51,22.57-74.28t73.92-25.76q51.36,0,73.93,25.76t22.57,74.28q0,48.21-22.57,74.12T423.19,883.91Zm0-62.07q12.76,0,18-9.34t5.19-28.62q0-19.29-5.19-28.63t-18-9.34q-12.76,0-18,9.34T400,783.88q0,19.29,5.2,28.62T423.19,821.84Z"/><path class="cls-1" d="M528.59,880.9V848.66a175,175,0,0,1,19.3-26.06,295.2,295.2,0,0,1,24.35-24q16.62-14.46,24-22.3t7.42-16.27q0-14.16-20.49-14.16a108.19,108.19,0,0,0-25.68,3,141.79,141.79,0,0,0-23.31,7.84V696.19a142.91,142.91,0,0,1,30.88-9,203.46,203.46,0,0,1,37.11-3.31q38,0,56.42,17.48t18.4,45.8a76,76,0,0,1-2.67,21.39,52.35,52.35,0,0,1-8.76,17,129.4,129.4,0,0,1-16.48,17.33q-5.94,5.43-13.06,11.6a60.73,60.73,0,0,0-10.39,11h52.85V880.9Z"/><path class="cls-1" d="M755.72,883.91a191.08,191.08,0,0,1-21.23-1.5q-12.91-1.51-25.68-4.22a142.62,142.62,0,0,1-21.38-6V817a105.43,105.43,0,0,0,29.1,9.34,163.69,163.69,0,0,0,27.32,2.71q12.17,0,18.4-2.41t6.24-9.94a8.72,8.72,0,0,0-4-7.38q-4-2.87-13.21-2.86h-35l4.46-46.11h28.8q8.61,0,12.17-2.71t3.56-8.43q0-4.83-5.64-7.69t-18.11-2.86a116.52,116.52,0,0,0-27.76,3.46,101.18,101.18,0,0,0-23.6,8.59V695.89a163.62,163.62,0,0,1,30-8.59,184,184,0,0,1,35.63-3.46q25.83,0,44.39,7.68t28.5,20.79A47.86,47.86,0,0,1,838.56,742a63.65,63.65,0,0,1-4.16,23.51,58.42,58.42,0,0,1-11,18.08A37.57,37.57,0,0,1,836.78,798q5,9.35,5,24.1,0,21.71-11.43,35.26t-30.88,20Q780.07,883.91,755.72,883.91Z"/><path class="cls-1" d="M164.9,419.69h222c-.15-1.66-.27-3.34-.34-5-2.91-63.83,47-117.88,111.39-120.81s119,46.37,121.94,110.2a116,116,0,0,1-.35,15.63H842.7l-2.55-56.07c-.91-20.31-18.37-35.91-38.72-35l-35.86,1.63a266.62,266.62,0,0,0-33.93-71.19l24.6-27a37,37,0,0,0-2.37-52.18l-44.92-41c-14.56-13.31-38.91-12.19-52.15,2.36l-25.66,27.93a266.93,266.93,0,0,0-72.93-25.82L556.47,105c-.93-20.35-18-36.34-38.3-35.41l-60.73,2.76c-20.35.93-35.6,18.38-34.67,38.73l1.74,38.36a267.84,267.84,0,0,0-70.45,32.35L326,156.33c-14.56-13.32-38.92-12.19-52.25,2.36l-41,44.87a37.14,37.14,0,0,0-9.63,26.58,36.62,36.62,0,0,0,12,25.58l27,24.72c-12.54,22.88-20.68,27.35-26.15,53.64l-38.11.93c-20.11,14.05-35,39.07-34.06,59.38Z"/></g></svg>