<svg width="41" height="41" viewBox="0 0 41 41" fill="none" xmlns="http://www.w3.org/2000/svg">
<path d="M20.4999 28.2778C24.7954 28.2778 28.2777 24.7955 28.2777 20.5C28.2777 16.2044 24.7954 12.7222 20.4999 12.7222C16.2044 12.7222 12.7222 16.2044 12.7222 20.5C12.7222 24.7955 16.2044 28.2778 20.4999 28.2778Z" stroke="white" stroke-width="5.35839" stroke-linecap="round" stroke-linejoin="round"/>
<path d="M3 28.2778V12.7222C3 7.35279 7.35279 3 12.7222 3H28.2778C33.6472 3 38 7.35279 38 12.7222V28.2778C38 33.6472 33.6472 38 28.2778 38H12.7222C7.35279 38 3 33.6472 3 28.2778Z" stroke="white" stroke-width="5.35839"/>
<path d="M31.1943 9.82501L31.2138 9.8034" stroke="white" stroke-width="5.35839" stroke-linecap="round" stroke-linejoin="round"/>
</svg>
